<?xml version="1.0" encoding="utf-8"?>
<svg version="1.1" xmlns="http://www.w3.org/2000/svg" xmlns:xlink="http://www.w3.org/1999/xlink">
    <svg id="active" viewBox="0 0 426 426">
        <path d="M213.333,0C95.518,0,0,95.514,0,213.333s95.518,213.333,213.333,213.333 c117.828,0,213.333-95.514,213.333-213.333S331.157,0,213.333,0z M174.199,322.918l-93.935-93.931l31.309-31.309l62.626,62.622 l140.894-140.898l31.309,31.309L174.199,322.918z"/>
    </svg>

    <svg id="right-arrow" viewBox="0 0 31 31" >
        <path d="M21.205,5.007c-0.429-0.444-1.143-0.444-1.587,0c-0.429,0.429-0.429,1.143,0,1.571l8.047,8.047H1.111 C0.492,14.626,0,15.118,0,15.737c0,0.619,0.492,1.127,1.111,1.127h26.554l-8.047,8.032c-0.429,0.444-0.429,1.159,0,1.587 c0.444,0.444,1.159,0.444,1.587,0l9.952-9.952c0.444-0.429,0.444-1.143,0-1.571L21.205,5.007z"/>
    </svg>

    <svg id="user-circle" fill="none" viewBox="0 0 24 24" stroke-width="1.5" stroke="currentColor">
        <path stroke-linecap="round" stroke-linejoin="round" d="M17.982 18.725A7.488 7.488 0 0 0 12 15.75a7.488 7.488 0 0 0-5.982 2.975m11.963 0a9 9 0 1 0-11.963 0m11.963 0A8.966 8.966 0 0 1 12 21a8.966 8.966 0 0 1-5.982-2.275M15 9.75a3 3 0 1 1-6 0 3 3 0 0 1 6 0Z" />
    </svg>

    <svg id="bell" viewBox="0 0 24 24" fill="none" stroke-width="1.5" stroke="currentColor" >
        <path stroke-linecap="round" stroke-linejoin="round" d="M14.857 17.082a23.848 23.848 0 0 0 5.454-1.31A8.967 8.967 0 0 1 18 9.75V9A6 6 0 0 0 6 9v.75a8.967 8.967 0 0 1-2.312 6.022c1.733.64 3.56 1.085 5.455 1.31m5.714 0a24.255 24.255 0 0 1-5.714 0m5.714 0a3 3 0 1 1-5.714 0M3.124 7.5A8.969 8.969 0 0 1 5.292 3m13.416 0a8.969 8.969 0 0 1 2.168 4.5" />
    </svg>

    <svg id="arrow-right-from-box" fill="none" viewBox="0 0 24 24" stroke-width="1.5" stroke="currentColor">
        <path stroke-linecap="round" stroke-linejoin="round" d="M15.75 9V5.25A2.25 2.25 0 0 0 13.5 3h-6a2.25 2.25 0 0 0-2.25 2.25v13.5A2.25 2.25 0 0 0 7.5 21h6a2.25 2.25 0 0 0 2.25-2.25V15m3 0 3-3m0 0-3-3m3 3H9" />
    </svg>

    <svg id="hamburger-menu" fill="none" viewBox="0 0 24 24" stroke-width="1.5" stroke="currentColor">
        <path stroke-linecap="round" stroke-linejoin="round" d="M3.75 6.75h16.5M3.75 12h16.5m-16.5 5.25h16.5" />
    </svg>

    <svg id="x-mark" fill="none" viewBox="0 0 24 24" stroke-width="1.5" stroke="currentColor" class="w-6 h-6">
        <path stroke-linecap="round" stroke-linejoin="round" d="M6 18 18 6M6 6l12 12" />
    </svg>



</svg>