<?xml version="1.0" encoding="utf-8"?>
<svg version="1.1" xmlns="http://www.w3.org/2000/svg" xmlns:xlink="http://www.w3.org/1999/xlink">
    <svg id="active" viewBox="0 0 426 426">
        <path d="M213.333,0C95.518,0,0,95.514,0,213.333s95.518,213.333,213.333,213.333 c117.828,0,213.333-95.514,213.333-213.333S331.157,0,213.333,0z M174.199,322.918l-93.935-93.931l31.309-31.309l62.626,62.622 l140.894-140.898l31.309,31.309L174.199,322.918z"/>
    </svg>

    RIGHT-ARROW
    <svg id="right-arrow" viewBox="0 0 31 31" >
        <path d="M21.205,5.007c-0.429-0.444-1.143-0.444-1.587,0c-0.429,0.429-0.429,1.143,0,1.571l8.047,8.047H1.111 C0.492,14.626,0,15.118,0,15.737c0,0.619,0.492,1.127,1.111,1.127h26.554l-8.047,8.032c-0.429,0.444-0.429,1.159,0,1.587 c0.444,0.444,1.159,0.444,1.587,0l9.952-9.952c0.444-0.429,0.444-1.143,0-1.571L21.205,5.007z"/>
    </svg>

    CHEVRON-LEFT
    <svg id="chevron-left" viewBox="0 0 24 24" fill="currentColor" aria-hidden="true">
        <path fill-rule="evenodd" d="M7.72 12.53a.75.75 0 010-1.06l7.5-7.5a.75.75 0 111.06 1.06L9.31 12l6.97 6.97a.75.75 0 11-1.06 1.06l-7.5-7.5z" clip-rule="evenodd"/>
    </svg>


    CHEVRON-RIGHT
    <svg id="chevron-right" fill="none" viewBox="0 0 24 24" stroke-width="1.5" stroke="currentColor" aria-hidden="true">
        <path stroke-linecap="round" stroke-linejoin="round" d="M8.25 4.5l7.5 7.5-7.5 7.5"/>
    </svg>

    USER-CIRCLE
    <svg id="user-circle" fill="none" viewBox="0 0 24 24" stroke-width="1.5" stroke="currentColor">
        <path stroke-linecap="round" stroke-linejoin="round" d="M17.982 18.725A7.488 7.488 0 0 0 12 15.75a7.488 7.488 0 0 0-5.982 2.975m11.963 0a9 9 0 1 0-11.963 0m11.963 0A8.966 8.966 0 0 1 12 21a8.966 8.966 0 0 1-5.982-2.275M15 9.75a3 3 0 1 1-6 0 3 3 0 0 1 6 0Z" />
    </svg>

    USER-PORTRAIT
    <svg id="user-portrait" viewBox="0 0 384 512">
        <path d="M384 64c0-35.3-28.7-64-64-64H64C28.7 0 0 28.7 0 64V448c0 35.3 28.7 64 64 64H320c35.3 0 64-28.7 64-64l0-384zM128 192a64 64 0 1 1 128 0 64 64 0 1 1 -128 0zM80 356.6c0-37.9 30.7-68.6 68.6-68.6h86.9c37.9 0 68.6 30.7 68.6 68.6c0 15.1-12.3 27.4-27.4 27.4H107.4C92.3 384 80 371.7 80 356.6z"/>
    </svg>

    PERSON-PORTRAIT
    <svg id="person-portrait" viewBox="0 0 384 512">
        <path d="M384 64c0-35.3-28.7-64-64-64H64C28.7 0 0 28.7 0 64V448c0 35.3 28.7 64 64 64H320c35.3 0 64-28.7 64-64l0-384zM128 192a64 64 0 1 1 128 0 64 64 0 1 1 -128 0zM80 356.6c0-37.9 30.7-68.6 68.6-68.6h86.9c37.9 0 68.6 30.7 68.6 68.6c0 15.1-12.3 27.4-27.4 27.4H107.4C92.3 384 80 371.7 80 356.6z"/>
    </svg>

    BELL
    <svg id="bell" viewBox="0 0 24 24" fill="none" stroke-width="1.5" stroke="currentColor" >
        <path stroke-linecap="round" stroke-linejoin="round" d="M14.857 17.082a23.848 23.848 0 0 0 5.454-1.31A8.967 8.967 0 0 1 18 9.75V9A6 6 0 0 0 6 9v.75a8.967 8.967 0 0 1-2.312 6.022c1.733.64 3.56 1.085 5.455 1.31m5.714 0a24.255 24.255 0 0 1-5.714 0m5.714 0a3 3 0 1 1-5.714 0M3.124 7.5A8.969 8.969 0 0 1 5.292 3m13.416 0a8.969 8.969 0 0 1 2.168 4.5" />
    </svg>

    STAR
    <svg id="star" viewBox="0 0 576 512">
        <path d="M316.9 18C311.6 7 300.4 0 288.1 0s-23.4 7-28.8 18L195 150.3 51.4 171.5c-12 1.8-22 10.2-25.7 21.7s-.7 24.2 7.9 32.7L137.8 329 113.2 474.7c-2 12 3 24.2 12.9 31.3s23 8 33.8 2.3l128.3-68.5 128.3 68.5c10.8 5.7 23.9 4.9 33.8-2.3s14.9-19.3 12.9-31.3L438.5 329 542.7 225.9c8.6-8.5 11.7-21.2 7.9-32.7s-13.7-19.9-25.7-21.7L381.2 150.3 316.9 18z"/>
    </svg>

    ARROW-RIGHT-FROM-BOX
    <svg id="arrow-right-from-box" fill="none" viewBox="0 0 24 24" stroke-width="1.5" stroke="currentColor">
        <path stroke-linecap="round" stroke-linejoin="round" d="M15.75 9V5.25A2.25 2.25 0 0 0 13.5 3h-6a2.25 2.25 0 0 0-2.25 2.25v13.5A2.25 2.25 0 0 0 7.5 21h6a2.25 2.25 0 0 0 2.25-2.25V15m3 0 3-3m0 0-3-3m3 3H9" />
    </svg>

    HAMBURGER MENU
    <svg id="hamburger-menu" fill="none" viewBox="0 0 24 24" stroke-width="1.5" stroke="currentColor">
        <path stroke-linecap="round" stroke-linejoin="round" d="M3.75 6.75h16.5M3.75 12h16.5m-16.5 5.25h16.5" />
    </svg>

    X-MARK
    <svg id="x-mark" fill="none" viewBox="0 0 24 24" stroke-width="1.5" stroke="currentColor">
        <path stroke-linecap="round" stroke-linejoin="round" d="M6 18 18 6M6 6l12 12" />
    </svg>

    SHOPPING-BAG-SOLID
    <svg id="shopping-bag-solid" viewBox="0 0 24 24" fill="currentColor" aria-hidden="true">
        <path fill-rule="evenodd" d="M6 5v1H4.667a1.75 1.75 0 00-1.743 1.598l-.826 9.5A1.75 1.75 0 003.84 19H16.16a1.75 1.75 0 001.743-1.902l-.826-9.5A1.75 1.75 0 0015.333 6H14V5a4 4 0 00-8 0zm4-2.5A2.5 2.5 0 007.5 5v1h5V5A2.5 2.5 0 0010 2.5zM7.5 10a2.5 2.5 0 005 0V8.75a.75.75 0 011.5 0V10a4 4 0 01-8 0V8.75a.75.75 0 011.5 0V10z" clip-rule="evenodd"/>
    </svg>

    SHOPPING-BAG
    <svg id="shopping-bag" fill="none" viewBox="0 0 24 24" stroke-width="1.5" stroke="currentColor" aria-hidden="true">
        <path stroke-linecap="round" stroke-linejoin="round" d="M15.75 10.5V6a3.75 3.75 0 10-7.5 0v4.5m11.356-1.993l1.263 12c.07.665-.45 1.243-1.119 1.243H4.25a1.125 1.125 0 01-1.12-1.243l1.264-12A1.125 1.125 0 015.513 7.5h12.974c.576 0 1.059.435 1.119 1.007zM8.625 10.5a.375.375 0 11-.75 0 .375.375 0 01.75 0zm7.5 0a.375.375 0 11-.75 0 .375.375 0 01.75 0z"/>
    </svg>

    DOCTOR
    <svg id="doctor" viewBox="0 0 448 512" fill="currentColor" >
        <path d="M224 256A128 128 0 1 0 224 0a128 128 0 1 0 0 256zm-96 55.2C54 332.9 0 401.3 0 482.3C0 498.7 13.3 512 29.7 512H418.3c16.4 0 29.7-13.3 29.7-29.7c0-81-54-149.4-128-171.1V362c27.6 7.1 48 32.2 48 62v40c0 8.8-7.2 16-16 16H336c-8.8 0-16-7.2-16-16s7.2-16 16-16V424c0-17.7-14.3-32-32-32s-32 14.3-32 32v24c8.8 0 16 7.2 16 16s-7.2 16-16 16H256c-8.8 0-16-7.2-16-16V424c0-29.8 20.4-54.9 48-62V304.9c-6-.6-12.1-.9-18.3-.9H178.3c-6.2 0-12.3 .3-18.3 .9v65.4c23.1 6.9 40 28.3 40 53.7c0 30.9-25.1 56-56 56s-56-25.1-56-56c0-25.4 16.9-46.8 40-53.7V311.2zM144 448a24 24 0 1 0 0-48 24 24 0 1 0 0 48z"/>
    </svg>

    DOCUMENT-SIGNED
    <svg id="document-signed" viewBox="0 0 384 512" fill="currentColor" >
        <path d="M64 0C28.7 0 0 28.7 0 64V448c0 35.3 28.7 64 64 64H320c35.3 0 64-28.7 64-64V160H256c-17.7 0-32-14.3-32-32V0H64zM256 0V128H384L256 0zM80 64h64c8.8 0 16 7.2 16 16s-7.2 16-16 16H80c-8.8 0-16-7.2-16-16s7.2-16 16-16zm0 64h64c8.8 0 16 7.2 16 16s-7.2 16-16 16H80c-8.8 0-16-7.2-16-16s7.2-16 16-16zm54.2 253.8c-6.1 20.3-24.8 34.2-46 34.2H80c-8.8 0-16-7.2-16-16s7.2-16 16-16h8.2c7.1 0 13.3-4.6 15.3-11.4l14.9-49.5c3.4-11.3 13.8-19.1 25.6-19.1s22.2 7.7 25.6 19.1l11.6 38.6c7.4-6.2 16.8-9.7 26.8-9.7c15.9 0 30.4 9 37.5 23.2l4.4 8.8H304c8.8 0 16 7.2 16 16s-7.2 16-16 16H240c-6.1 0-11.6-3.4-14.3-8.8l-8.8-17.7c-1.7-3.4-5.1-5.5-8.8-5.5s-7.2 2.1-8.8 5.5l-8.8 17.7c-2.9 5.9-9.2 9.4-15.7 8.8s-12.1-5.1-13.9-11.3L144 349l-9.8 32.8z"/>
    </svg>

    PILLS
    <svg id="pills" viewBox="0 0 576 512" fill="currentColor" >
        <path d="M112 96c-26.5 0-48 21.5-48 48V256h96V144c0-26.5-21.5-48-48-48zM0 144C0 82.1 50.1 32 112 32s112 50.1 112 112V368c0 61.9-50.1 112-112 112S0 429.9 0 368V144zM554.9 399.4c-7.1 12.3-23.7 13.1-33.8 3.1L333.5 214.9c-10-10-9.3-26.7 3.1-33.8C360 167.7 387.1 160 416 160c88.4 0 160 71.6 160 160c0 28.9-7.7 56-21.1 79.4zm-59.5 59.5C472 472.3 444.9 480 416 480c-88.4 0-160-71.6-160-160c0-28.9 7.7-56 21.1-79.4c7.1-12.3 23.7-13.1 33.8-3.1L498.5 425.1c10 10 9.3 26.7-3.1 33.8z"/>
    </svg>

    CHART-LINE-UP
    <svg id="chart-line-up" viewBox="0 0 512 512" fill="currentColor">
        <path d="M64 64c0-17.7-14.3-32-32-32S0 46.3 0 64V400c0 44.2 35.8 80 80 80H480c17.7 0 32-14.3 32-32s-14.3-32-32-32H80c-8.8 0-16-7.2-16-16V64zm406.6 86.6c12.5-12.5 12.5-32.8 0-45.3s-32.8-12.5-45.3 0L320 210.7l-57.4-57.4c-12.5-12.5-32.8-12.5-45.3 0l-112 112c-12.5 12.5-12.5 32.8 0 45.3s32.8 12.5 45.3 0L240 221.3l57.4 57.4c12.5 12.5 32.8 12.5 45.3 0l128-128z"/>
    </svg>

    CHALK-BOARD
    <svg id="chalk-board" fill="currentColor" viewBox="0 0 576 512">
        <path d="M96 32C60.7 32 32 60.7 32 96V384H96V96l384 0V384h64V96c0-35.3-28.7-64-64-64H96zM224 384v32H32c-17.7 0-32 14.3-32 32s14.3 32 32 32H544c17.7 0 32-14.3 32-32s-14.3-32-32-32H416V384c0-17.7-14.3-32-32-32H256c-17.7 0-32 14.3-32 32z"/>
    </svg>

    HOME
    <svg id="home" viewBox="0 0 576 512" fill="currentColor">
        <path d="M575.8 255.5c0 18-15 32.1-32 32.1h-32l.7 160.2c0 2.7-.2 5.4-.5 8.1V472c0 22.1-17.9 40-40 40H456c-1.1 0-2.2 0-3.3-.1c-1.4 .1-2.8 .1-4.2 .1H416 392c-22.1 0-40-17.9-40-40V448 384c0-17.7-14.3-32-32-32H256c-17.7 0-32 14.3-32 32v64 24c0 22.1-17.9 40-40 40H160 128.1c-1.5 0-3-.1-4.5-.2c-1.2 .1-2.4 .2-3.6 .2H104c-22.1 0-40-17.9-40-40V360c0-.9 0-1.9 .1-2.8V287.6H32c-18 0-32-14-32-32.1c0-9 3-17 10-24L266.4 8c7-7 15-8 22-8s15 2 21 7L564.8 231.5c8 7 12 15 11 24z"/>
    </svg>

    TRASH-CAN
    <svg id="trash-can" fill="none" viewBox="0 0 24 24" stroke-width="1.5" stroke="currentColor" aria-hidden="true">
        <path stroke-linecap="round" stroke-linejoin="round" d="M14.74 9l-.346 9m-4.788 0L9.26 9m9.968-3.21c.342.052.682.107 1.022.166m-1.022-.165L18.16 19.673a2.25 2.25 0 01-2.244 2.077H8.084a2.25 2.25 0 01-2.244-2.077L4.772 5.79m14.456 0a48.108 48.108 0 00-3.478-.397m-12 .562c.34-.059.68-.114 1.022-.165m0 0a48.11 48.11 0 013.478-.397m7.5 0v-.916c0-1.18-.91-2.164-2.09-2.201a51.964 51.964 0 00-3.32 0c-1.18.037-2.09 1.022-2.09 2.201v.916m7.5 0a48.667 48.667 0 00-7.5 0"/>
    </svg>

    PENCIL
    <svg id="pencil" fill="none" viewBox="0 0 24 24" stroke-width="1.5" stroke="currentColor" aria-hidden="true">
        <path stroke-linecap="round" stroke-linejoin="round" d="M16.862 4.487l1.687-1.688a1.875 1.875 0 112.652 2.652L6.832 19.82a4.5 4.5 0 01-1.897 1.13l-2.685.8.8-2.685a4.5 4.5 0 011.13-1.897L16.863 4.487zm0 0L19.5 7.125"/>
    </svg>

    LIST-SOLID
    <svg id="list-solid" viewBox="0 0 512 512">
        <path d="M40 48C26.7 48 16 58.7 16 72v48c0 13.3 10.7 24 24 24H88c13.3 0 24-10.7 24-24V72c0-13.3-10.7-24-24-24H40zM192 64c-17.7 0-32 14.3-32 32s14.3 32 32 32H480c17.7 0 32-14.3 32-32s-14.3-32-32-32H192zm0 160c-17.7 0-32 14.3-32 32s14.3 32 32 32H480c17.7 0 32-14.3 32-32s-14.3-32-32-32H192zm0 160c-17.7 0-32 14.3-32 32s14.3 32 32 32H480c17.7 0 32-14.3 32-32s-14.3-32-32-32H192zM16 232v48c0 13.3 10.7 24 24 24H88c13.3 0 24-10.7 24-24V232c0-13.3-10.7-24-24-24H40c-13.3 0-24 10.7-24 24zM40 368c-13.3 0-24 10.7-24 24v48c0 13.3 10.7 24 24 24H88c13.3 0 24-10.7 24-24V392c0-13.3-10.7-24-24-24H40z"/>
    </svg>

    TABLE-LIST-SOLID
    <svg id="table-list-solid" viewBox="0 0 512 512">
        <path d="M0 96C0 60.7 28.7 32 64 32H448c35.3 0 64 28.7 64 64V416c0 35.3-28.7 64-64 64H64c-35.3 0-64-28.7-64-64V96zm64 0v64h64V96H64zm384 0H192v64H448V96zM64 224v64h64V224H64zm384 0H192v64H448V224zM64 352v64h64V352H64zm384 0H192v64H448V352z"/>
    </svg>



</svg>